<?xml version="1.0" encoding="utf-8"?>
<!-- Generator: Adobe Illustrator 16.0.0, SVG Export Plug-In . SVG Version: 6.00 Build 0)  -->
<!DOCTYPE svg PUBLIC "-//W3C//DTD SVG 1.1//EN" "http://www.w3.org/Graphics/SVG/1.1/DTD/svg11.dtd">
<svg version="1.1" id="Layer_1" xmlns="http://www.w3.org/2000/svg" xmlns:xlink="http://www.w3.org/1999/xlink" x="0px" y="0px"
	 width="286px" height="60px" viewBox="0 0 286 60" enable-background="new 0 0 286 60" xml:space="preserve">
<g>
	<path fill="#FFFFFF" d="M39.539,51.791H25.884l4.552-3.401c-1.081-2.825-2.181-5.649-3.296-8.476
		c-1.256-3.209-2.478-5.945-3.662-8.214l-2.878,5.65l0.314,10.255l4.708,2.981H12.49l4.081-2.878v-33.43l-4.237-3.297h13.393
		l-5.021,3.61l0.209,15.747l8.422-15.747l-2.877-3.034l11.406,0.104l-5.912,3.401L26.25,25.841l8.894,22.758L39.539,51.791z"/>
	<path fill="#FFFFFF" d="M66.848,11.977l-4.5,2.773l-0.312,37.303h-1.937L46.968,19.824v27.623l3.976,3.035l-11.404,0.104l4.76-3.19
		l-0.053-33.798l-4.812-3.14l8.214,0.211c2.755,6.591,6.836,16.113,12.242,28.564l-0.209-24.746l-3.924-2.93l11.091,0.104V11.977z"
		/>
	<path fill="#FFFFFF" d="M88.141,28.666c0,7.011-1.238,12.713-3.715,17.108c-1.778,3.174-4.098,4.761-6.958,4.761
		c-1.745,0-3.374-0.637-4.892-1.91c-1.517-1.272-2.66-2.99-3.427-5.153c-1.569-4.568-2.354-9.032-2.354-13.394
		c0-4.115,0.732-7.882,2.197-11.3c2.372-5.476,5.022-8.405,7.953-8.79c0.348-0.033,0.68-0.052,0.993-0.052
		c3.454,0,6.104,2.599,7.952,7.795C86.867,19.895,87.617,23.539,88.141,28.666z M82.438,42.06c0.838-3.801,1.256-7.587,1.256-11.354
		c0-4.882-0.698-9.712-2.092-14.491c-0.42-0.802-0.838-1.587-1.256-2.354c-0.419-0.628-1.099-0.941-2.041-0.941
		c-0.453,0-0.994,0.052-1.621,0.157c-1.187,0.453-2.303,2.092-3.349,4.917c-1.36,3.628-1.988,8.458-1.884,14.492
		c0.069,4.813,0.227,7.795,0.471,8.946c0.732,4.012,2.477,6.313,5.232,6.906c1.674,0,2.93-0.732,3.767-2.197
		C81.409,44.779,81.914,43.42,82.438,42.06z"/>
	<path fill="#FFFFFF" d="M118.328,12.291l-3.559,2.512c-1.046,5.092-2.162,11.3-3.349,18.625
		c-0.977,6.242-1.971,12.486-2.982,18.729l-2.036-0.209l-5.324-26.714L96.882,50.85l-2.254-0.001l-6.226-35.21l-5.075-4.133
		l12.347,0.262l-3.548,3.602l4.496,23.622l3.552-21.415l-3.977-3.82l11.092-0.052l-3.191,3.179l3.699,24.033l4.4-25.964
		l-3.758-2.766L118.328,12.291z"/>
	<path fill="#FFFFFF" d="M144.59,48.18h-12.242c1.221-1.15,2.477-2.266,3.767-3.348l-0.104-33.85l-4.081-3.139l12.295,0.104
		l-4.29,3.505l0.313,33.536L144.59,48.18z"/>
	<path fill="#FFFFFF" d="M165.777,27.201l-4.237-12.504h-4.133L157.25,47.5l3.609,3.61l-11.353-0.052l4.028-3.191l0.053-33.064
		l-4.918-0.471l-3.871,12.241l0.418-15.591l20.194,0.419L165.777,27.201z"/>
	<path fill="#FFFFFF" d="M214.85,12.291l-3.557,2.512c-1.047,5.092-2.163,11.3-3.35,18.625c-0.977,6.242-1.971,12.486-2.982,18.729
		l-2.036-0.209L197.6,25.233l-4.195,25.616l-2.254-0.001l-6.226-35.21l-5.075-4.133l12.348,0.262l-3.549,3.602l4.496,23.622
		l3.552-21.415l-3.977-3.82l11.092-0.052l-3.191,3.179l3.699,24.033l4.4-25.964l-3.758-2.766L214.85,12.291z"/>
	<path fill="#FFFFFF" d="M231.434,51.529l-12.765-0.105l4.552-3.139l-1.988-10.986l-7.848,0.052L211.188,47.5l3.087,2.878
		l-10.621,0.157l4.709-2.617l7.115-34.79l-5.702-2.669l10.516,0.42l6.853,36.988L231.434,51.529z M220.604,34.107l-2.981-17.37
		l-3.348,17.37H220.604z"/>
	<path fill="#FFFFFF" d="M251,33.898l-0.471,14.857h-19.934l4.5-3.191l0.418-33.169l-4.604-3.505l13.551,0.313l-5.127,2.982
		l-0.157,33.221l8.004-0.104L251,33.898z"/>
	<path fill="#FFFFFF" d="M271.193,33.898l-0.471,14.857h-19.934l4.5-3.191l0.418-33.169l-4.604-3.505l13.551,0.313l-5.127,2.982
		l-0.158,33.221l8.005-0.104L271.193,33.898z"/>
</g>
</svg>
